<mxfile host="app.diagrams.net" agent="Mozilla/5.0 (X11; Ubuntu; Linux x86_64; rv:135.0) Gecko/20100101 Firefox/135.0" version="26.0.11">
  <diagram name="Page-1" id="LV24El7zBHRtOcjS7ma_">
    <mxGraphModel dx="2074" dy="1182" grid="1" gridSize="10" guides="1" tooltips="1" connect="1" arrows="1" fold="1" page="1" pageScale="1" pageWidth="850" pageHeight="1100" math="0" shadow="0">
      <root>
        <mxCell id="0" />
        <mxCell id="1" parent="0" />
        <mxCell id="9xJehbNz7qDHg-alJ_5t-11" style="edgeStyle=orthogonalEdgeStyle;rounded=0;orthogonalLoop=1;jettySize=auto;html=1;entryX=0;entryY=0.5;entryDx=0;entryDy=0;endArrow=none;startFill=0;" edge="1" parent="1" source="9xJehbNz7qDHg-alJ_5t-1" target="9xJehbNz7qDHg-alJ_5t-2">
          <mxGeometry relative="1" as="geometry" />
        </mxCell>
        <mxCell id="9xJehbNz7qDHg-alJ_5t-1" value="Jogador" style="whiteSpace=wrap;html=1;aspect=fixed;" vertex="1" parent="1">
          <mxGeometry x="320" y="370" width="80" height="80" as="geometry" />
        </mxCell>
        <mxCell id="9xJehbNz7qDHg-alJ_5t-2" value="CRUD" style="whiteSpace=wrap;html=1;aspect=fixed;" vertex="1" parent="1">
          <mxGeometry x="510" y="370" width="80" height="80" as="geometry" />
        </mxCell>
      </root>
    </mxGraphModel>
  </diagram>
</mxfile>
